{
	"patcher" : 	{
		"fileversion" : 1,
		"rect" : [ 29.0, 69.0, 1353.0, 749.0 ],
		"bglocked" : 0,
		"defrect" : [ 29.0, 69.0, 1353.0, 749.0 ],
		"openrect" : [ 0.0, 0.0, 0.0, 0.0 ],
		"openinpresentation" : 0,
		"default_fontsize" : 9.0,
		"default_fontface" : 0,
		"default_fontname" : "Arial",
		"gridonopen" : 0,
		"gridsize" : [ 15.0, 15.0 ],
		"gridsnaponopen" : 0,
		"toolbarvisible" : 1,
		"boxanimatetime" : 200,
		"imprint" : 0,
		"enablehscroll" : 1,
		"enablevscroll" : 1,
		"devicewidth" : 0.0,
		"boxes" : [ 			{
				"box" : 				{
					"maxclass" : "live.slider",
					"varname" : "live.slider[3]",
					"numinlets" : 1,
					"numoutlets" : 2,
					"presentation_rect" : [ 358.0, 644.0, 169.0, 31.0 ],
					"showname" : 0,
					"outlettype" : [ "", "float" ],
					"patching_rect" : [ 372.0, 644.0, 169.0, 31.0 ],
					"id" : "obj-19",
					"presentation" : 1,
					"parameter_enable" : 1,
					"orientation" : 1,
					"tricolor" : [ 0.54902, 1.0, 0.007843, 1.0 ],
					"saved_attribute_attributes" : 					{
						"valueof" : 						{
							"parameter_modmax" : 127.0,
							"parameter_longname" : "live.slider[6]",
							"parameter_modmin" : 0.0,
							"parameter_linknames" : 0,
							"parameter_modmode" : 0,
							"parameter_info" : "",
							"parameter_units" : "",
							"parameter_order" : 0,
							"parameter_defer" : 0,
							"parameter_speedlim" : 1.0,
							"parameter_steps" : 0,
							"parameter_invisible" : 0,
							"parameter_exponent" : 1.0,
							"parameter_annotation_name" : "",
							"parameter_unitstyle" : 1,
							"parameter_mmax" : 1023.0,
							"parameter_mmin" : 0.0,
							"parameter_type" : 0,
							"parameter_initial_enable" : 0,
							"parameter_shortname" : "live.slider[8]"
						}

					}

				}

			}
, 			{
				"box" : 				{
					"maxclass" : "live.slider",
					"varname" : "live.slider[2]",
					"numinlets" : 1,
					"numoutlets" : 2,
					"presentation_rect" : [ 442.0, 618.0, 169.0, 31.0 ],
					"showname" : 0,
					"outlettype" : [ "", "float" ],
					"patching_rect" : [ 548.0, 644.0, 169.0, 31.0 ],
					"id" : "obj-17",
					"presentation" : 1,
					"parameter_enable" : 1,
					"orientation" : 1,
					"tricolor" : [ 0.54902, 1.0, 0.007843, 1.0 ],
					"saved_attribute_attributes" : 					{
						"valueof" : 						{
							"parameter_modmax" : 127.0,
							"parameter_longname" : "live.slider[5]",
							"parameter_modmin" : 0.0,
							"parameter_linknames" : 0,
							"parameter_modmode" : 0,
							"parameter_info" : "",
							"parameter_units" : "",
							"parameter_order" : 0,
							"parameter_defer" : 0,
							"parameter_speedlim" : 1.0,
							"parameter_steps" : 0,
							"parameter_invisible" : 0,
							"parameter_exponent" : 1.0,
							"parameter_annotation_name" : "",
							"parameter_unitstyle" : 1,
							"parameter_mmax" : 1023.0,
							"parameter_mmin" : 0.0,
							"parameter_type" : 0,
							"parameter_initial_enable" : 0,
							"parameter_shortname" : "live.slider[8]"
						}

					}

				}

			}
, 			{
				"box" : 				{
					"maxclass" : "live.slider",
					"varname" : "live.slider[1]",
					"numinlets" : 1,
					"numoutlets" : 2,
					"presentation_rect" : [ 250.0, 302.0, 169.0, 31.0 ],
					"showname" : 0,
					"outlettype" : [ "", "float" ],
					"patching_rect" : [ 723.0, 644.0, 169.0, 31.0 ],
					"id" : "obj-18",
					"presentation" : 1,
					"parameter_enable" : 1,
					"orientation" : 1,
					"tricolor" : [ 0.54902, 1.0, 0.007843, 1.0 ],
					"saved_attribute_attributes" : 					{
						"valueof" : 						{
							"parameter_modmax" : 127.0,
							"parameter_longname" : "live.slider[4]",
							"parameter_modmin" : 0.0,
							"parameter_linknames" : 0,
							"parameter_modmode" : 0,
							"parameter_info" : "",
							"parameter_units" : "",
							"parameter_order" : 0,
							"parameter_defer" : 0,
							"parameter_speedlim" : 1.0,
							"parameter_steps" : 0,
							"parameter_invisible" : 0,
							"parameter_exponent" : 1.0,
							"parameter_annotation_name" : "",
							"parameter_unitstyle" : 1,
							"parameter_mmax" : 1023.0,
							"parameter_mmin" : 0.0,
							"parameter_type" : 0,
							"parameter_initial_enable" : 0,
							"parameter_shortname" : "live.slider[8]"
						}

					}

				}

			}
, 			{
				"box" : 				{
					"maxclass" : "live.slider",
					"varname" : "live.slider[5]",
					"numinlets" : 1,
					"numoutlets" : 2,
					"presentation_rect" : [ 235.0, 287.0, 169.0, 31.0 ],
					"showname" : 0,
					"outlettype" : [ "", "float" ],
					"patching_rect" : [ 899.0, 644.0, 169.0, 31.0 ],
					"id" : "obj-88",
					"presentation" : 1,
					"parameter_enable" : 1,
					"orientation" : 1,
					"tricolor" : [ 0.54902, 1.0, 0.007843, 1.0 ],
					"saved_attribute_attributes" : 					{
						"valueof" : 						{
							"parameter_modmax" : 127.0,
							"parameter_longname" : "live.slider[3]",
							"parameter_modmin" : 0.0,
							"parameter_linknames" : 0,
							"parameter_modmode" : 0,
							"parameter_info" : "",
							"parameter_units" : "",
							"parameter_order" : 0,
							"parameter_defer" : 0,
							"parameter_speedlim" : 1.0,
							"parameter_steps" : 0,
							"parameter_invisible" : 0,
							"parameter_exponent" : 1.0,
							"parameter_annotation_name" : "",
							"parameter_unitstyle" : 1,
							"parameter_mmax" : 1023.0,
							"parameter_mmin" : 0.0,
							"parameter_type" : 0,
							"parameter_initial_enable" : 0,
							"parameter_shortname" : "live.slider[8]"
						}

					}

				}

			}
, 			{
				"box" : 				{
					"maxclass" : "inlet",
					"numinlets" : 0,
					"numoutlets" : 1,
					"outlettype" : [ "" ],
					"patching_rect" : [ 843.0, 91.0, 25.0, 25.0 ],
					"id" : "obj-2",
					"comment" : "print"
				}

			}
, 			{
				"box" : 				{
					"maxclass" : "inlet",
					"numinlets" : 0,
					"numoutlets" : 1,
					"outlettype" : [ "" ],
					"patching_rect" : [ 765.0, 90.0, 25.0, 25.0 ],
					"id" : "obj-9",
					"comment" : "baud rate"
				}

			}
, 			{
				"box" : 				{
					"maxclass" : "inlet",
					"numinlets" : 0,
					"numoutlets" : 1,
					"outlettype" : [ "" ],
					"patching_rect" : [ 666.0, 90.0, 25.0, 25.0 ],
					"id" : "obj-6",
					"comment" : "port"
				}

			}
, 			{
				"box" : 				{
					"maxclass" : "inlet",
					"numinlets" : 0,
					"numoutlets" : 1,
					"outlettype" : [ "" ],
					"patching_rect" : [ 589.0, 89.0, 25.0, 25.0 ],
					"id" : "obj-3",
					"comment" : "bang to start"
				}

			}
, 			{
				"box" : 				{
					"maxclass" : "inlet",
					"numinlets" : 0,
					"numoutlets" : 1,
					"outlettype" : [ "" ],
					"patching_rect" : [ 472.0, 95.0, 25.0, 25.0 ],
					"id" : "obj-16",
					"comment" : "switch on/off (tggle)"
				}

			}
, 			{
				"box" : 				{
					"maxclass" : "outlet",
					"numinlets" : 1,
					"numoutlets" : 0,
					"patching_rect" : [ 1147.0, 461.0, 25.0, 25.0 ],
					"id" : "obj-15",
					"comment" : "connection indicator"
				}

			}
, 			{
				"box" : 				{
					"maxclass" : "outlet",
					"numinlets" : 1,
					"numoutlets" : 0,
					"patching_rect" : [ 761.0, 499.0, 25.0, 25.0 ],
					"id" : "obj-14",
					"comment" : "sensor4"
				}

			}
, 			{
				"box" : 				{
					"maxclass" : "outlet",
					"numinlets" : 1,
					"numoutlets" : 0,
					"patching_rect" : [ 705.0, 499.0, 25.0, 25.0 ],
					"id" : "obj-13",
					"comment" : "sensor3"
				}

			}
, 			{
				"box" : 				{
					"maxclass" : "outlet",
					"numinlets" : 1,
					"numoutlets" : 0,
					"patching_rect" : [ 648.0, 499.0, 25.0, 25.0 ],
					"id" : "obj-12",
					"comment" : "sensor2"
				}

			}
, 			{
				"box" : 				{
					"maxclass" : "outlet",
					"numinlets" : 1,
					"numoutlets" : 0,
					"patching_rect" : [ 591.0, 499.0, 25.0, 25.0 ],
					"id" : "obj-10",
					"comment" : "sensor1"
				}

			}
, 			{
				"box" : 				{
					"maxclass" : "number",
					"numinlets" : 1,
					"fontsize" : 9.0,
					"numoutlets" : 2,
					"outlettype" : [ "int", "bang" ],
					"patching_rect" : [ 761.0, 418.0, 50.0, 17.0 ],
					"id" : "obj-8",
					"fontname" : "Arial"
				}

			}
, 			{
				"box" : 				{
					"maxclass" : "number",
					"numinlets" : 1,
					"fontsize" : 9.0,
					"numoutlets" : 2,
					"outlettype" : [ "int", "bang" ],
					"patching_rect" : [ 705.0, 417.0, 50.0, 17.0 ],
					"id" : "obj-7",
					"fontname" : "Arial"
				}

			}
, 			{
				"box" : 				{
					"maxclass" : "number",
					"numinlets" : 1,
					"fontsize" : 9.0,
					"numoutlets" : 2,
					"outlettype" : [ "int", "bang" ],
					"patching_rect" : [ 648.0, 417.0, 50.0, 17.0 ],
					"id" : "obj-5",
					"fontname" : "Arial"
				}

			}
, 			{
				"box" : 				{
					"maxclass" : "number",
					"numinlets" : 1,
					"fontsize" : 9.0,
					"numoutlets" : 2,
					"outlettype" : [ "int", "bang" ],
					"patching_rect" : [ 591.0, 415.0, 50.0, 17.0 ],
					"id" : "obj-4",
					"fontname" : "Arial"
				}

			}
, 			{
				"box" : 				{
					"maxclass" : "newobj",
					"text" : "fromsymbol",
					"numinlets" : 1,
					"fontsize" : 9.0,
					"numoutlets" : 1,
					"outlettype" : [ "" ],
					"patching_rect" : [ 761.0, 393.0, 64.0, 17.0 ],
					"id" : "obj-48",
					"fontname" : "Arial"
				}

			}
, 			{
				"box" : 				{
					"maxclass" : "newobj",
					"text" : "itoa",
					"numinlets" : 3,
					"fontsize" : 9.0,
					"numoutlets" : 1,
					"outlettype" : [ "int" ],
					"patching_rect" : [ 761.0, 373.0, 40.0, 17.0 ],
					"id" : "obj-49",
					"fontname" : "Arial"
				}

			}
, 			{
				"box" : 				{
					"maxclass" : "newobj",
					"text" : "fromsymbol",
					"numinlets" : 1,
					"fontsize" : 9.0,
					"numoutlets" : 1,
					"outlettype" : [ "" ],
					"patching_rect" : [ 705.0, 395.0, 64.0, 17.0 ],
					"id" : "obj-46",
					"fontname" : "Arial"
				}

			}
, 			{
				"box" : 				{
					"maxclass" : "newobj",
					"text" : "itoa",
					"numinlets" : 3,
					"fontsize" : 9.0,
					"numoutlets" : 1,
					"outlettype" : [ "int" ],
					"patching_rect" : [ 705.0, 375.0, 40.0, 17.0 ],
					"id" : "obj-47",
					"fontname" : "Arial"
				}

			}
, 			{
				"box" : 				{
					"maxclass" : "comment",
					"text" : "grouping the incoming data until 20 (breaker). it does not have to be 30.. just any big number so it does not fill up before the breaker.",
					"numinlets" : 1,
					"fontsize" : 9.0,
					"numoutlets" : 0,
					"patching_rect" : [ 650.0, 324.0, 553.0, 17.0 ],
					"id" : "obj-319",
					"fontname" : "Arial"
				}

			}
, 			{
				"box" : 				{
					"maxclass" : "comment",
					"text" : "bangs when there is data",
					"linecount" : 4,
					"numinlets" : 1,
					"fontsize" : 9.0,
					"numoutlets" : 0,
					"patching_rect" : [ 464.0, 338.0, 49.0, 48.0 ],
					"id" : "obj-314",
					"fontname" : "Arial"
				}

			}
, 			{
				"box" : 				{
					"maxclass" : "comment",
					"text" : "click to make the toggle swithc on",
					"numinlets" : 1,
					"fontsize" : 9.0,
					"numoutlets" : 0,
					"patching_rect" : [ 534.0, 158.0, 148.0, 17.0 ],
					"id" : "obj-312",
					"fontname" : "Arial"
				}

			}
, 			{
				"box" : 				{
					"maxclass" : "comment",
					"text" : "choose your serial port and baud rate. baudrate should match with what you have programed on arudino. Do not set baudrate faster than 9600 on lilypad",
					"linecount" : 3,
					"numinlets" : 1,
					"fontsize" : 9.0,
					"numoutlets" : 0,
					"patching_rect" : [ 649.0, 282.0, 232.0, 38.0 ],
					"id" : "obj-308",
					"fontname" : "Arial"
				}

			}
, 			{
				"box" : 				{
					"maxclass" : "comment",
					"text" : "priint to see which serial port is available on your computer. it may not be port a always.",
					"numinlets" : 1,
					"fontsize" : 9.0,
					"numoutlets" : 0,
					"patching_rect" : [ 671.0, 235.0, 357.0, 17.0 ],
					"id" : "obj-306",
					"fontname" : "Arial"
				}

			}
, 			{
				"box" : 				{
					"maxclass" : "comment",
					"text" : "Arduino is programed to send serial when available. that is why you have to send \"99\" (or anything) to start communication. If you do not have \"serial available\" on arduino, it crashes max. you have to send \"99\" again when arduino/lilypad is reset.",
					"linecount" : 7,
					"numinlets" : 1,
					"fontsize" : 9.0,
					"numoutlets" : 0,
					"patching_rect" : [ 696.0, 150.0, 154.0, 79.0 ],
					"id" : "obj-304",
					"fontname" : "Arial"
				}

			}
, 			{
				"box" : 				{
					"maxclass" : "umenu",
					"numinlets" : 1,
					"fontsize" : 10.0,
					"numoutlets" : 3,
					"items" : [ "baud", 9600, ",", "baud", 19200, ",", "baud", 115200 ],
					"outlettype" : [ "int", "", "" ],
					"labelclick" : 1,
					"types" : [  ],
					"patching_rect" : [ 742.0, 259.0, 100.0, 18.0 ],
					"id" : "obj-11",
					"fontname" : "Arial"
				}

			}
, 			{
				"box" : 				{
					"maxclass" : "umenu",
					"numinlets" : 1,
					"fontsize" : 10.0,
					"numoutlets" : 3,
					"items" : [ "port", "a", ",", "port", "b", ",", "port", "c", ",", "port", "d", ",", "port", "e" ],
					"outlettype" : [ "int", "", "" ],
					"types" : [  ],
					"patching_rect" : [ 646.0, 258.0, 92.0, 18.0 ],
					"id" : "obj-1",
					"fontname" : "Arial"
				}

			}
, 			{
				"box" : 				{
					"maxclass" : "button",
					"numinlets" : 1,
					"numoutlets" : 1,
					"outlettype" : [ "bang" ],
					"patching_rect" : [ 471.0, 294.0, 39.0, 39.0 ],
					"id" : "obj-256"
				}

			}
, 			{
				"box" : 				{
					"maxclass" : "message",
					"text" : "print",
					"numinlets" : 2,
					"fontsize" : 9.0,
					"numoutlets" : 1,
					"outlettype" : [ "" ],
					"patching_rect" : [ 629.0, 236.0, 32.0, 15.0 ],
					"id" : "obj-253",
					"fontname" : "Arial"
				}

			}
, 			{
				"box" : 				{
					"maxclass" : "message",
					"text" : "99",
					"numinlets" : 2,
					"fontsize" : 9.0,
					"numoutlets" : 1,
					"outlettype" : [ "" ],
					"patching_rect" : [ 589.0, 236.0, 32.5, 15.0 ],
					"id" : "obj-230",
					"fontname" : "Arial"
				}

			}
, 			{
				"box" : 				{
					"maxclass" : "toggle",
					"numinlets" : 1,
					"numoutlets" : 1,
					"outlettype" : [ "int" ],
					"patching_rect" : [ 534.0, 180.0, 22.0, 22.0 ],
					"id" : "obj-228"
				}

			}
, 			{
				"box" : 				{
					"maxclass" : "newobj",
					"text" : "metro 10",
					"numinlets" : 2,
					"fontsize" : 9.0,
					"numoutlets" : 1,
					"outlettype" : [ "bang" ],
					"patching_rect" : [ 534.0, 208.0, 46.0, 17.0 ],
					"id" : "obj-229",
					"fontname" : "Arial"
				}

			}
, 			{
				"box" : 				{
					"maxclass" : "newobj",
					"text" : "serial e 9600",
					"numinlets" : 1,
					"fontsize" : 11.595187,
					"numoutlets" : 2,
					"outlettype" : [ "int", "" ],
					"patching_rect" : [ 534.0, 275.0, 77.0, 20.0 ],
					"id" : "obj-226",
					"fontname" : "Arial"
				}

			}
, 			{
				"box" : 				{
					"maxclass" : "newobj",
					"text" : "fromsymbol",
					"numinlets" : 1,
					"fontsize" : 9.0,
					"numoutlets" : 1,
					"outlettype" : [ "" ],
					"patching_rect" : [ 648.0, 395.0, 64.0, 17.0 ],
					"id" : "obj-198",
					"fontname" : "Arial"
				}

			}
, 			{
				"box" : 				{
					"maxclass" : "newobj",
					"text" : "itoa",
					"numinlets" : 3,
					"fontsize" : 9.0,
					"numoutlets" : 1,
					"outlettype" : [ "int" ],
					"patching_rect" : [ 648.0, 375.0, 40.0, 17.0 ],
					"id" : "obj-245",
					"fontname" : "Arial"
				}

			}
, 			{
				"box" : 				{
					"maxclass" : "newobj",
					"text" : "fromsymbol",
					"numinlets" : 1,
					"fontsize" : 9.0,
					"numoutlets" : 1,
					"outlettype" : [ "" ],
					"patching_rect" : [ 591.0, 395.0, 64.0, 17.0 ],
					"id" : "obj-246",
					"fontname" : "Arial"
				}

			}
, 			{
				"box" : 				{
					"maxclass" : "newobj",
					"text" : "itoa",
					"numinlets" : 3,
					"fontsize" : 9.0,
					"numoutlets" : 1,
					"outlettype" : [ "int" ],
					"patching_rect" : [ 591.0, 375.0, 40.0, 17.0 ],
					"id" : "obj-247",
					"fontname" : "Arial"
				}

			}
, 			{
				"box" : 				{
					"maxclass" : "newobj",
					"text" : "zl group 30",
					"numinlets" : 2,
					"fontsize" : 9.0,
					"numoutlets" : 2,
					"outlettype" : [ "", "" ],
					"patching_rect" : [ 534.0, 323.0, 61.0, 17.0 ],
					"id" : "obj-251",
					"fontname" : "Arial"
				}

			}
, 			{
				"box" : 				{
					"maxclass" : "newobj",
					"text" : "sel 20",
					"numinlets" : 2,
					"fontsize" : 9.0,
					"numoutlets" : 2,
					"outlettype" : [ "bang", "" ],
					"patching_rect" : [ 534.0, 301.0, 38.0, 17.0 ],
					"id" : "obj-254",
					"fontname" : "Arial"
				}

			}
, 			{
				"box" : 				{
					"maxclass" : "newobj",
					"text" : "route 0 1 2 3 4 5",
					"numinlets" : 1,
					"fontsize" : 9.0,
					"numoutlets" : 7,
					"outlettype" : [ "", "", "", "", "", "", "" ],
					"patching_rect" : [ 534.0, 346.0, 360.0, 17.0 ],
					"id" : "obj-258",
					"fontname" : "Arial"
				}

			}
, 			{
				"box" : 				{
					"maxclass" : "comment",
					"text" : "press 99 couple of times to start communication",
					"linecount" : 3,
					"numinlets" : 1,
					"fontsize" : 9.0,
					"numoutlets" : 0,
					"patching_rect" : [ 593.0, 190.0, 100.0, 38.0 ],
					"id" : "obj-259",
					"fontname" : "Arial"
				}

			}
 ],
		"lines" : [ 			{
				"patchline" : 				{
					"source" : [ "obj-246", 0 ],
					"destination" : [ "obj-19", 0 ],
					"hidden" : 1,
					"midpoints" : [  ]
				}

			}
, 			{
				"patchline" : 				{
					"source" : [ "obj-198", 0 ],
					"destination" : [ "obj-17", 0 ],
					"hidden" : 1,
					"midpoints" : [  ]
				}

			}
, 			{
				"patchline" : 				{
					"source" : [ "obj-2", 0 ],
					"destination" : [ "obj-253", 0 ],
					"hidden" : 0,
					"midpoints" : [ 852.5, 141.5, 638.5, 141.5 ]
				}

			}
, 			{
				"patchline" : 				{
					"source" : [ "obj-16", 0 ],
					"destination" : [ "obj-229", 0 ],
					"hidden" : 0,
					"midpoints" : [ 481.5, 163.5, 543.5, 163.5 ]
				}

			}
, 			{
				"patchline" : 				{
					"source" : [ "obj-226", 0 ],
					"destination" : [ "obj-15", 0 ],
					"hidden" : 1,
					"midpoints" : [  ]
				}

			}
, 			{
				"patchline" : 				{
					"source" : [ "obj-226", 0 ],
					"destination" : [ "obj-256", 0 ],
					"hidden" : 0,
					"midpoints" : [  ]
				}

			}
, 			{
				"patchline" : 				{
					"source" : [ "obj-48", 0 ],
					"destination" : [ "obj-14", 0 ],
					"hidden" : 0,
					"midpoints" : [  ]
				}

			}
, 			{
				"patchline" : 				{
					"source" : [ "obj-46", 0 ],
					"destination" : [ "obj-13", 0 ],
					"hidden" : 0,
					"midpoints" : [  ]
				}

			}
, 			{
				"patchline" : 				{
					"source" : [ "obj-198", 0 ],
					"destination" : [ "obj-12", 0 ],
					"hidden" : 0,
					"midpoints" : [  ]
				}

			}
, 			{
				"patchline" : 				{
					"source" : [ "obj-246", 0 ],
					"destination" : [ "obj-10", 0 ],
					"hidden" : 0,
					"midpoints" : [  ]
				}

			}
, 			{
				"patchline" : 				{
					"source" : [ "obj-48", 0 ],
					"destination" : [ "obj-8", 0 ],
					"hidden" : 0,
					"midpoints" : [  ]
				}

			}
, 			{
				"patchline" : 				{
					"source" : [ "obj-46", 0 ],
					"destination" : [ "obj-7", 0 ],
					"hidden" : 0,
					"midpoints" : [  ]
				}

			}
, 			{
				"patchline" : 				{
					"source" : [ "obj-198", 0 ],
					"destination" : [ "obj-5", 0 ],
					"hidden" : 0,
					"midpoints" : [  ]
				}

			}
, 			{
				"patchline" : 				{
					"source" : [ "obj-246", 0 ],
					"destination" : [ "obj-4", 0 ],
					"hidden" : 0,
					"midpoints" : [  ]
				}

			}
, 			{
				"patchline" : 				{
					"source" : [ "obj-258", 4 ],
					"destination" : [ "obj-49", 0 ],
					"hidden" : 0,
					"midpoints" : [  ]
				}

			}
, 			{
				"patchline" : 				{
					"source" : [ "obj-258", 3 ],
					"destination" : [ "obj-47", 0 ],
					"hidden" : 0,
					"midpoints" : [  ]
				}

			}
, 			{
				"patchline" : 				{
					"source" : [ "obj-258", 2 ],
					"destination" : [ "obj-245", 0 ],
					"hidden" : 0,
					"midpoints" : [  ]
				}

			}
, 			{
				"patchline" : 				{
					"source" : [ "obj-258", 1 ],
					"destination" : [ "obj-247", 0 ],
					"hidden" : 0,
					"midpoints" : [  ]
				}

			}
, 			{
				"patchline" : 				{
					"source" : [ "obj-251", 0 ],
					"destination" : [ "obj-258", 0 ],
					"hidden" : 0,
					"midpoints" : [  ]
				}

			}
, 			{
				"patchline" : 				{
					"source" : [ "obj-11", 1 ],
					"destination" : [ "obj-226", 0 ],
					"hidden" : 0,
					"midpoints" : [  ]
				}

			}
, 			{
				"patchline" : 				{
					"source" : [ "obj-1", 1 ],
					"destination" : [ "obj-226", 0 ],
					"hidden" : 0,
					"midpoints" : [  ]
				}

			}
, 			{
				"patchline" : 				{
					"source" : [ "obj-230", 0 ],
					"destination" : [ "obj-226", 0 ],
					"hidden" : 0,
					"midpoints" : [  ]
				}

			}
, 			{
				"patchline" : 				{
					"source" : [ "obj-253", 0 ],
					"destination" : [ "obj-226", 0 ],
					"hidden" : 0,
					"midpoints" : [  ]
				}

			}
, 			{
				"patchline" : 				{
					"source" : [ "obj-226", 0 ],
					"destination" : [ "obj-254", 0 ],
					"hidden" : 0,
					"midpoints" : [  ]
				}

			}
, 			{
				"patchline" : 				{
					"source" : [ "obj-245", 0 ],
					"destination" : [ "obj-198", 0 ],
					"hidden" : 0,
					"midpoints" : [  ]
				}

			}
, 			{
				"patchline" : 				{
					"source" : [ "obj-247", 0 ],
					"destination" : [ "obj-246", 0 ],
					"hidden" : 0,
					"midpoints" : [  ]
				}

			}
, 			{
				"patchline" : 				{
					"source" : [ "obj-254", 1 ],
					"destination" : [ "obj-251", 0 ],
					"hidden" : 0,
					"midpoints" : [  ]
				}

			}
, 			{
				"patchline" : 				{
					"source" : [ "obj-254", 0 ],
					"destination" : [ "obj-251", 0 ],
					"hidden" : 0,
					"midpoints" : [  ]
				}

			}
, 			{
				"patchline" : 				{
					"source" : [ "obj-228", 0 ],
					"destination" : [ "obj-229", 0 ],
					"hidden" : 0,
					"midpoints" : [  ]
				}

			}
, 			{
				"patchline" : 				{
					"source" : [ "obj-229", 0 ],
					"destination" : [ "obj-226", 0 ],
					"hidden" : 0,
					"midpoints" : [  ]
				}

			}
, 			{
				"patchline" : 				{
					"source" : [ "obj-47", 0 ],
					"destination" : [ "obj-46", 0 ],
					"hidden" : 0,
					"midpoints" : [  ]
				}

			}
, 			{
				"patchline" : 				{
					"source" : [ "obj-49", 0 ],
					"destination" : [ "obj-48", 0 ],
					"hidden" : 0,
					"midpoints" : [  ]
				}

			}
, 			{
				"patchline" : 				{
					"source" : [ "obj-3", 0 ],
					"destination" : [ "obj-230", 0 ],
					"hidden" : 0,
					"midpoints" : [  ]
				}

			}
, 			{
				"patchline" : 				{
					"source" : [ "obj-6", 0 ],
					"destination" : [ "obj-226", 0 ],
					"hidden" : 0,
					"midpoints" : [ 675.5, 140.5, 543.5, 140.5 ]
				}

			}
, 			{
				"patchline" : 				{
					"source" : [ "obj-9", 0 ],
					"destination" : [ "obj-226", 0 ],
					"hidden" : 0,
					"midpoints" : [ 774.5, 141.5, 543.5, 141.5 ]
				}

			}
, 			{
				"patchline" : 				{
					"source" : [ "obj-48", 0 ],
					"destination" : [ "obj-88", 0 ],
					"hidden" : 1,
					"midpoints" : [  ]
				}

			}
, 			{
				"patchline" : 				{
					"source" : [ "obj-7", 0 ],
					"destination" : [ "obj-18", 0 ],
					"hidden" : 1,
					"midpoints" : [  ]
				}

			}
 ],
		"parameters" : 		{
			"obj-19" : [ "live.slider[6]", "live.slider[8]", 0 ],
			"obj-18" : [ "live.slider[4]", "live.slider[8]", 0 ],
			"obj-88" : [ "live.slider[3]", "live.slider[8]", 0 ],
			"obj-17" : [ "live.slider[5]", "live.slider[8]", 0 ]
		}

	}

}
